<svg xmlns="http://www.w3.org/2000/svg" width="115" height="15" fill="none"><path fill="#000" d="M27.23 10.386v-3.04c0-.454-.08-.861-.238-1.225-.159-.363-.451-.663-.877-.902s-.99-.423-1.693-.553c-.703-.13-1.588-.195-2.654-.195-1.157 0-2.096.081-2.815.247-.72.165-1.28.399-1.677.706-.398.306-.663.667-.8 1.08a4.287 4.287 0 0 0-.204 1.353v3.79c0 .466.069.901.204 1.31.135.41.402.767.8 1.073.397.305.955.544 1.677.715.72.17 1.658.255 2.815.255 1.066 0 1.95-.062 2.654-.187.703-.125 1.267-.3 1.693-.528.426-.227.718-.516.877-.868.159-.35.239-.748.239-1.19v-.766h-2.978v.748c0 .182-.032.334-.093.46-.062.125-.182.23-.358.314-.175.085-.427.153-.756.203a8.53 8.53 0 0 1-1.276.077c-.568 0-1.02-.042-1.361-.127-.34-.085-.59-.198-.748-.34a.9.9 0 0 1-.298-.485 2.516 2.516 0 0 1-.06-.544v-1.38h7.93l-.002-.001ZM19.303 7.72c0-.192.02-.377.06-.552a.948.948 0 0 1 .297-.485c.159-.147.406-.263.74-.349.334-.085.791-.127 1.37-.127.52 0 .943.029 1.267.086.324.056.576.133.756.23.182.097.304.212.366.35.062.134.093.295.093.475v1.276H19.3v-.902l.002-.002Zm68.804 2.666v-3.04c0-.454-.08-.861-.238-1.225-.16-.363-.451-.663-.877-.902s-.99-.423-1.694-.553c-.703-.13-1.588-.195-2.653-.195-1.157 0-2.096.081-2.816.247-.72.165-1.279.399-1.676.706-.398.306-.663.667-.8 1.08a4.287 4.287 0 0 0-.204 1.353v3.79c0 .466.069.901.204 1.31.135.41.402.767.8 1.073.397.305.955.544 1.676.715.72.17 1.659.255 2.816.255 1.065 0 1.95-.062 2.653-.187.704-.125 1.268-.3 1.694-.528.426-.227.718-.516.877-.868.158-.35.238-.748.238-1.19v-.766H85.13v.748c0 .182-.032.334-.094.46-.061.125-.182.23-.357.314-.175.085-.428.153-.757.203a8.53 8.53 0 0 1-1.275.077c-.568 0-1.02-.042-1.362-.127-.34-.085-.589-.198-.748-.34a.9.9 0 0 1-.297-.485 2.516 2.516 0 0 1-.06-.544v-1.38h7.929l-.002-.001Zm-7.93-2.666c0-.192.02-.377.06-.552a.949.949 0 0 1 .298-.485c.158-.147.406-.263.74-.349.334-.085.791-.127 1.369-.127.52 0 .943.029 1.267.086.324.056.576.133.757.23.182.097.304.212.366.35.061.134.093.295.093.475v1.276h-4.951v-.902l.001-.002Zm-26.68 2.666v-3.04c0-.454-.081-.861-.24-1.225-.158-.363-.45-.663-.877-.902-.425-.239-.99-.423-1.693-.553-.703-.13-1.588-.195-2.653-.195-1.158 0-2.096.081-2.816.247-.72.165-1.28.399-1.677.706-.397.306-.663.667-.8 1.08a4.287 4.287 0 0 0-.203 1.353v3.79c0 .466.068.901.203 1.31.136.41.403.767.8 1.073.398.305.956.544 1.677.715.72.17 1.658.255 2.816.255 1.065 0 1.95-.062 2.653-.187.703-.125 1.268-.3 1.694-.528.425-.227.718-.516.876-.868.159-.35.24-.748.24-1.19v-.766h-2.978v.748c0 .182-.032.334-.094.46-.062.125-.182.23-.357.314-.176.085-.428.153-.757.203a8.53 8.53 0 0 1-1.276.077c-.567 0-1.02-.042-1.36-.127-.341-.085-.59-.198-.749-.34a.9.9 0 0 1-.297-.485 2.516 2.516 0 0 1-.06-.544v-1.38h7.929l-.002-.001Zm-7.93-2.666c0-.192.02-.377.06-.552a.948.948 0 0 1 .297-.485c.159-.147.406-.263.74-.349.334-.085.792-.127 1.37-.127.52 0 .943.029 1.267.086.324.056.576.133.757.23.182.097.303.212.365.35.062.134.094.295.094.475v1.276h-4.952v-.902l.002-.002ZM29.42 14.76V4.692h2.568l.154 1.14c.182-.215.397-.409.646-.577.25-.17.536-.316.86-.435a5.33 5.33 0 0 1 1.08-.264 9.293 9.293 0 0 1 1.312-.085c.793 0 1.466.074 2.016.22.549.148 1 .361 1.352.639.35.277.606.624.767 1.037.158.414.239.888.239 1.42v6.971h-3.03v-6.8a1.94 1.94 0 0 0-.127-.748 1.222 1.222 0 0 0-.417-.52 1.988 1.988 0 0 0-.748-.315 5.05 5.05 0 0 0-1.09-.102c-.454 0-.833.037-1.14.11a2.42 2.42 0 0 0-.791.333c-.22.147-.383.325-.485.536-.102.21-.153.45-.153.723v6.783H29.42Zm26.28 0V4.692h2.569l.154 1.14c.182-.215.397-.409.646-.577.249-.17.536-.316.86-.435a5.332 5.332 0 0 1 1.08-.264 9.294 9.294 0 0 1 1.311-.085c.794 0 1.466.074 2.016.22.55.148 1 .361 1.353.639a2.4 2.4 0 0 1 .764 1.037c.16.414.24.888.24 1.42v6.971h-3.03v-6.8a1.94 1.94 0 0 0-.127-.748 1.223 1.223 0 0 0-.418-.52 1.988 1.988 0 0 0-.748-.315 5.05 5.05 0 0 0-1.088-.102 4.99 4.99 0 0 0-1.141.11c-.306.074-.57.184-.792.333-.22.147-.382.325-.484.536-.102.21-.154.45-.154.723v6.783h-3.01Zm16.825-8.307v5.295c0 .183.012.354.034.52a.824.824 0 0 0 .187.426c.102.12.244.212.426.28.182.069.426.102.731.102h1.82v1.685h-2.568c-.772 0-1.393-.073-1.864-.22-.47-.147-.841-.358-1.114-.63a2.022 2.022 0 0 1-.544-.995 5.792 5.792 0 0 1-.137-1.301V6.456h-1.344v-1.76h1.344V2.22h3.03v2.477h3.18v1.76h-3.18v-.003Zm20.33 8.29c-.72-.17-1.28-.41-1.678-.715-.397-.306-.663-.663-.8-1.072a4.144 4.144 0 0 1-.203-1.311v-3.79c0-.487.068-.938.204-1.352.136-.414.402-.775.8-1.08.397-.306.955-.542 1.676-.707.72-.164 1.658-.247 2.816-.247 1.065 0 1.949.065 2.645.195.698.13 1.26.316 1.685.553.426.239.72.54.885.902.164.362.247.771.247 1.226v1.072h-2.977V7.345c0-.182-.032-.341-.094-.476-.062-.136-.185-.252-.366-.35-.182-.096-.434-.173-.756-.23a7.614 7.614 0 0 0-1.268-.085c-.577 0-1.035.042-1.369.127-.334.085-.581.202-.74.349a.938.938 0 0 0-.297.484c-.04.176-.06.361-.06.553v4.043c0 .182.02.363.06.545.04.182.142.344.305.484.164.142.415.255.749.34.334.086.785.128 1.352.128.521 0 .946-.029 1.268-.086.324-.056.576-.13.756-.22.182-.09.304-.204.366-.34a1.15 1.15 0 0 0 .094-.477V11.03h2.977v1.122c0 .443-.082.84-.247 1.19-.165.353-.459.65-.885.894s-.987.431-1.685.561c-.698.13-1.58.196-2.645.196-1.158 0-2.096-.086-2.816-.256v.007Zm19.109-10.05c.549.147 1 .36 1.352.638.351.277.607.624.765 1.037.159.414.239.888.239 1.42v6.971h-3.029v-6.8c0-.295-.042-.544-.127-.748a1.22 1.22 0 0 0-.418-.52 1.98 1.98 0 0 0-.748-.315 5.135 5.135 0 0 0-1.105-.102c-.431 0-.82.037-1.133.11a2.31 2.31 0 0 0-.791.333 1.368 1.368 0 0 0-.476.536c-.102.21-.154.45-.154.723v6.783h-3.011V.027h3.011v5.499a3.41 3.41 0 0 1 .638-.434 5.072 5.072 0 0 1 1.795-.553 9.547 9.547 0 0 1 1.174-.068c.794 0 1.467.073 2.016.22l.002.002ZM10.494 9.215H7.026V7.128h7.092V10.5c0 .521-.098 1-.297 1.438-.199.436-1.461 3.06-6.76 3.06-5.3 0-6.565-2.624-6.764-3.06A3.436 3.436 0 0 1 0 10.5V4.497c0-.52.099-1 .297-1.438C.496 2.622 1.76 0 7.06 0c5.299 0 6.563 2.622 6.76 3.06.199.437.297.916.297 1.437v.693h-3.622V3.796c0-.239-.045-.468-.135-.69-.09-.22-.257-.417-.503-.588-.244-.17-.59-.312-1.039-.425-.447-.114-1.035-.17-1.761-.17-.727 0-1.313.056-1.762.17-.448.113-.795.255-1.039.425-.244.17-.41.366-.503.588-.09.22-.135.451-.135.69v7.408c0 .239.045.468.135.69.09.22.258.417.503.588.244.17.59.312 1.039.426.447.113 1.035.17 1.762.17.726 0 1.312-.057 1.761-.17.448-.114.795-.256 1.04-.426.243-.17.41-.366.502-.588.09-.22.135-.451.135-.69V9.215Z"></path></svg>
